<svg id="Layer_1" data-name="Layer 1" xmlns="http://www.w3.org/2000/svg" xmlns:xlink="http://www.w3.org/1999/xlink" viewBox="0 0 493.775 493.783"><defs><style>.cls-1{fill:url(#linear-gradient);}.cls-2{fill:url(#linear-gradient-2);}.cls-3{fill:url(#linear-gradient-3);}.cls-4{fill:url(#linear-gradient-4);}.cls-5{fill:url(#linear-gradient-5);}.cls-6{fill:url(#linear-gradient-6);}.cls-7{fill:url(#linear-gradient-7);}.cls-8{fill:url(#linear-gradient-8);}.cls-9{fill:url(#linear-gradient-9);}.cls-10{fill:url(#linear-gradient-10);}.cls-11{fill:url(#linear-gradient-11);}.cls-12{fill:url(#linear-gradient-12);}.cls-13{fill:url(#linear-gradient-13);}.cls-14{fill:url(#linear-gradient-14);}.cls-15{fill:url(#linear-gradient-15);}.cls-16{fill:url(#linear-gradient-16);}.cls-17{fill:url(#linear-gradient-17);}.cls-18{fill:url(#linear-gradient-18);}</style><linearGradient id="linear-gradient" x1="65.49" y1="140.521" x2="225.111" y2="140.521" gradientUnits="userSpaceOnUse"><stop offset="0.006" stop-color="#d64208"/><stop offset="1" stop-color="orange"/></linearGradient><linearGradient id="linear-gradient-2" x1="85.639" y1="151.366" x2="144.773" y2="151.366" xlink:href="#linear-gradient"/><linearGradient id="linear-gradient-3" x1="65.491" y1="140.522" x2="225.111" y2="140.522" gradientTransform="translate(259.484 -96.711) rotate(44.862)" xlink:href="#linear-gradient"/><linearGradient id="linear-gradient-4" x1="85.64" y1="151.367" x2="144.773" y2="151.367" gradientTransform="translate(259.484 -96.711) rotate(44.862)" xlink:href="#linear-gradient"/><linearGradient id="linear-gradient-5" x1="65.492" y1="140.522" x2="225.112" y2="140.522" gradientTransform="translate(511.629 17.779) rotate(89.724)" xlink:href="#linear-gradient"/><linearGradient id="linear-gradient-6" x1="85.641" y1="151.368" x2="144.774" y2="151.368" gradientTransform="translate(511.629 17.779) rotate(89.724)" xlink:href="#linear-gradient"/><linearGradient id="linear-gradient-7" x1="65.493" y1="140.521" x2="225.113" y2="140.521" gradientTransform="translate(609.591 276.793) rotate(134.585)" xlink:href="#linear-gradient"/><linearGradient id="linear-gradient-8" x1="85.642" y1="151.367" x2="144.775" y2="151.367" gradientTransform="translate(609.591 276.793) rotate(134.585)" xlink:href="#linear-gradient"/><linearGradient id="linear-gradient-9" x1="65.493" y1="140.52" x2="225.114" y2="140.52" gradientTransform="translate(496.319 529.488) rotate(179.447)" xlink:href="#linear-gradient"/><linearGradient id="linear-gradient-10" x1="85.642" y1="151.366" x2="144.776" y2="151.366" gradientTransform="translate(496.319 529.488) rotate(179.447)" xlink:href="#linear-gradient"/><linearGradient id="linear-gradient-11" x1="65.492" y1="140.519" x2="225.113" y2="140.519" gradientTransform="translate(237.781 628.698) rotate(-135.691)" xlink:href="#linear-gradient"/><linearGradient id="linear-gradient-12" x1="85.642" y1="151.365" x2="144.775" y2="151.365" gradientTransform="translate(237.781 628.698) rotate(-135.691)" xlink:href="#linear-gradient"/><linearGradient id="linear-gradient-13" x1="65.491" y1="140.519" x2="225.112" y2="140.519" gradientTransform="translate(-15.458 516.647) rotate(-90.829)" xlink:href="#linear-gradient"/><linearGradient id="linear-gradient-14" x1="85.64" y1="151.365" x2="144.774" y2="151.365" gradientTransform="translate(-15.458 516.647) rotate(-90.829)" xlink:href="#linear-gradient"/><linearGradient id="linear-gradient-15" x1="65.49" y1="140.52" x2="225.111" y2="140.52" gradientTransform="translate(-115.915 258.59) rotate(-45.968)" xlink:href="#linear-gradient"/><linearGradient id="linear-gradient-16" x1="85.639" y1="151.365" x2="144.773" y2="151.365" gradientTransform="translate(-115.915 258.59) rotate(-45.968)" xlink:href="#linear-gradient"/><linearGradient id="linear-gradient-17" x1="191.058" y1="272.731" x2="290.396" y2="272.731" xlink:href="#linear-gradient"/><linearGradient id="linear-gradient-18" x1="263.395" y1="309.279" x2="263.399" y2="309.279" xlink:href="#linear-gradient"/></defs><title>logo</title><path class="cls-1" d="M156.741,103.78c5.1,2.605,11.8,7.947,33.293,19.855,0,0,8.749,3.969,23.1,15.929,2.718,2.265,6.115,4.756,9.739,13.589s2.265,17.892,0,21.969-5.978,7.7-8.607,9.059-3.17,2.039-10.871,2.265a21.7,21.7,0,0,1-12.456-3.171,50.721,50.721,0,0,1-15.4-18.118c-5.45-10.663-12.306-15.627-20.383-22.785,0,0,5.435.59,12.456,7.158s15.174,15.4,16.986,17.665a2.312,2.312,0,0,0,3.624.453s2.6-2.321-1.359-8.833S151.117,126.938,146.1,124.39,124.58,110.8,103.291,109.669,81.4,123.711,80.643,125.3c-1.661,17.741,7.445,35.784,9.144,40.314,10.3,21.063,18.736,30.54,17.787,31.083-1.252.717-19.926-17.264-31.751-44.22,0,0-15.666-33.629-8.419-52.257A40.781,40.781,0,0,1,71.4,92.729c4.036-6.388,13.058-7.973,13.058-7.973a51.236,51.236,0,0,1,26.536,3.623c15.868,6.121,35.784,16.987,35.784,16.987s22.421,12.456,36.01,24.007c8.493,7.219,11.59,9.819,13.215,11.174.289.241,1.047.977,2.186,1.825,3.224,2.4,7.248,4.666,7.474,3.76C208.53,143.717,151.645,101.176,156.741,103.78Z" transform="translate(0 -19.049)"/><path class="cls-2" d="M119.145,117.671c-10.011-4.292-14.773-3.979-16.609-3.775-2.032.227-8.813.579-12.683,5.738-3.624,4.832-4.831,9.512-3.926,17.213,1.963,13.7,7.7,25.97,10.721,32.462s7.851,15.854,11.324,19.629c0,0,.755-2.869-.3-4.379s-13.287-25.064-15.4-38.5.151-18.27.151-18.27,1.661-6.039,9.361-8,23.781,5,27.027,6.643,8.908,6.115,11.928,7.1,4.037-.151,4.037-.151h0A116.374,116.374,0,0,0,119.145,117.671Z" transform="translate(0 -19.049)"/><path class="cls-3" d="M297.377,87.415c1.775,5.441,2.76,13.958,9.593,37.558,0,0,3.4,8.985,5.138,27.587.329,3.522.979,7.684-2.683,16.5s-11.016,14.28-15.5,15.572-9.671,1.244-12.49.351-3.686-.792-9.3-6.064a21.714,21.714,0,0,1-6.592-11.034,50.718,50.718,0,0,1,1.864-23.706c3.659-11.4,2.3-19.757,1.625-30.529,0,0,3.437,4.252,3.78,13.86s-.108,21.621-.421,24.5a2.312,2.312,0,0,0,2.249,2.877s3.483.192,5.267-7.219-2.851-47.811-4.612-53.158-5.665-24.809-19.956-40.629-25.424-5.491-27.077-4.9C214.569,60.39,208.3,79.6,206.305,84.012c-7.553,22.2-8.263,34.864-9.319,34.579-1.393-.375-1.945-26.293,8.688-53.741,0,0,12.617-34.887,30.895-42.979a40.8,40.8,0,0,1,8.112-2.49c7.366-1.681,14.88,3.56,14.88,3.56a51.237,51.237,0,0,1,16.252,21.286C282.743,59.759,289.2,81.51,289.2,81.51s7.106,24.645,8.59,42.418c.928,11.108,1.289,15.135,1.485,17.242.035.375.053,1.431.262,2.836.592,3.974,1.845,8.42,2.645,7.937C305.915,152.254,295.6,81.975,297.377,87.415Z" transform="translate(0 -19.049)"/><path class="cls-4" d="M260.93,70.741c-4.069-10.1-7.664-13.241-9.11-14.391-1.6-1.273-6.655-5.807-13.037-4.88-5.977.869-10.134,3.334-14.924,9.431C215.585,72,211,84.741,208.558,91.473s-5.618,16.776-5.819,21.9c0,0,2.559-1.5,2.875-3.317s8.262-27.138,16.243-38.154S234.851,59.06,234.851,59.06s5.438-3.11,12.28.931,13.328,20.32,14.471,23.774,2,10.618,3.449,13.444,2.967,2.74,2.967,2.74h0A116.341,116.341,0,0,0,260.93,70.741Z" transform="translate(0 -19.049)"/><path class="cls-5" d="M408.605,175.02c-2.58,5.109-7.89,11.84-19.694,33.388,0,0-3.927,8.769-15.817,23.178-2.252,2.729-4.727,6.138-13.542,9.8s-17.881,2.352-21.969.106-7.732-5.94-9.1-8.562-2.054-3.161-2.318-10.86a21.718,21.718,0,0,1,3.111-12.472,50.736,50.736,0,0,1,18.044-15.488c10.637-5.5,15.568-12.381,22.687-20.493,0,0-.564,5.438-7.1,12.491s-15.327,15.248-17.584,17.071a2.312,2.312,0,0,0-.435,3.626s2.334,2.593,8.826-1.4,31.7-35.9,34.228-40.932,13.485-21.581,14.515-42.876-14.147-21.825-15.736-22.572c-17.749-1.575-35.748,7.618-40.27,9.338-21.013,10.407-30.449,18.884-31,17.937-.723-1.248,17.168-20.009,44.067-31.963,0,0,33.552-15.829,52.216-8.672a40.876,40.876,0,0,1,7.506,3.958c6.407,4,8.036,13.02,8.036,13.02a51.232,51.232,0,0,1-3.5,26.552c-6.044,15.9-16.813,35.866-16.813,35.866s-12.348,22.481-23.833,36.126c-7.178,8.527-9.763,11.636-11.111,13.269-.24.29-.971,1.051-1.814,2.194-2.384,3.235-4.631,7.27-3.724,7.492C368.919,227,411.185,169.912,408.605,175.02Z" transform="translate(0 -19.049)"/><path class="cls-6" d="M394.533,137.492c4.244-10.032,3.908-14.792,3.695-16.627-.236-2.031-.621-8.811-5.8-12.655-4.849-3.6-9.535-4.786-17.231-3.843-13.693,2.029-25.933,7.826-32.411,10.877s-15.815,7.928-19.573,11.418c0,0,2.872.742,4.377-.323s25-13.407,38.427-15.586,18.27.063,18.27.063,6.048,1.632,8.048,9.322-4.887,23.805-6.513,27.059-6.072,8.938-7.039,11.962.17,4.036.17,4.036h0A116.348,116.348,0,0,0,394.533,137.492Z" transform="translate(0 -19.049)"/><path class="cls-7" d="M425.649,315.576c-5.432,1.8-13.945,2.827-37.512,9.774,0,0-8.968,3.445-27.561,5.271-3.521.345-7.68,1.016-16.514-2.6s-14.333-10.946-15.647-15.421-1.29-9.665-.41-12.489.774-3.689,6.018-9.332a21.714,21.714,0,0,1,11-6.646,50.732,50.732,0,0,1,23.715,1.75c11.42,3.6,19.768,2.206,30.536,1.477,0,0-4.235,3.458-13.842,3.848s-21.62,0-24.505-.3a2.312,2.312,0,0,0-2.866,2.263s-.175,3.485,7.244,5.233,47.8-3.082,53.135-4.869,24.782-5.785,40.533-20.152,5.368-25.45,4.769-27.1c-11.47-13.637-30.713-19.817-35.131-21.787-22.235-7.446-34.9-8.094-34.624-9.151.369-1.395,26.283-2.073,53.782,8.428,0,0,34.948,12.448,43.128,30.687a40.88,40.88,0,0,1,2.529,8.1c1.716,7.358-3.488,14.9-3.488,14.9A51.238,51.238,0,0,1,468.732,293.8c-15.5,7.005-37.217,13.562-37.217,13.562s-24.611,7.224-42.377,8.794c-11.1.981-15.128,1.361-17.235,1.568-.374.036-1.43.06-2.834.276-3.972.611-8.411,1.886-7.924,2.683C360.851,324.426,431.081,313.775,425.649,315.576Z" transform="translate(0 -19.049)"/><path class="cls-8" d="M442.147,279.049c10.084-4.118,13.2-7.728,14.347-9.179,1.265-1.607,5.775-6.683,4.817-13.061-.9-5.972-3.383-10.118-9.5-14.879-11.137-8.22-23.9-12.746-30.646-15.152s-16.8-5.537-21.928-5.714c0,0,1.513,2.552,3.33,2.859s27.178,8.131,38.232,16.058S453.7,252.914,453.7,252.914s3.136,5.422-.872,12.284-20.255,13.426-23.7,14.585-10.608,2.052-13.427,3.514-2.726,2.981-2.726,2.981h0A116.394,116.394,0,0,0,442.147,279.049Z" transform="translate(0 -19.049)"/><path class="cls-9" d="M338.581,427.225c-5.12-2.555-11.878-7.832-33.483-19.532,0,0-8.786-3.885-23.253-15.706-2.74-2.238-6.161-4.7-9.87-13.494s-2.437-17.87-.212-21.968,5.9-7.761,8.519-9.142,3.151-2.069,10.849-2.37a21.716,21.716,0,0,1,12.486,3.051,50.731,50.731,0,0,1,15.575,17.969c5.552,10.61,12.456,15.508,20.6,22.587,0,0-5.441-.537-12.525-7.037s-15.322-15.254-17.156-17.5a2.311,2.311,0,0,0-3.627-.418s-2.582,2.347,1.444,8.819,36.052,31.531,41.1,34.031,21.646,13.38,42.945,14.307,21.757-14.252,22.5-15.845c1.49-17.756-7.79-35.71-9.533-40.223-10.507-20.963-19.03-30.359-18.086-30.911,1.246-.729,20.092,17.072,32.176,43.912,0,0,15.991,33.476,8.923,52.174a40.787,40.787,0,0,1-3.921,7.525c-3.974,6.426-12.981,8.1-12.981,8.1a51.232,51.232,0,0,1-26.569-3.367c-15.926-5.967-35.946-16.64-35.946-16.64S325.99,413.3,312.29,401.885c-8.562-7.136-11.683-9.707-13.322-11.046-.291-.239-1.056-.966-2.2-1.8-3.247-2.369-7.292-4.6-7.51-3.689C286.41,387.791,343.7,429.781,338.581,427.225Z" transform="translate(0 -19.049)"/><path class="cls-10" d="M376.042,412.972c10.052,4.195,14.81,3.837,16.644,3.615,2.03-.246,8.808-.664,12.627-5.86,3.577-4.866,4.74-9.558,3.759-17.25-2.094-13.682-7.95-25.894-11.032-32.357s-8-15.778-11.513-19.519c0,0-.728,2.876.344,4.376s13.528,24.935,15.771,38.352.026,18.27.026,18.27-1.6,6.055-9.284,8.092-23.828-4.772-27.09-6.382-8.967-6.029-12-6.981-4.034.19-4.034.19h0A116.37,116.37,0,0,0,376.042,412.972Z" transform="translate(0 -19.049)"/><path class="cls-11" d="M198.11,444.947c-1.827-5.424-2.894-13.931-9.955-37.464,0,0-3.488-8.952-5.4-27.536-.363-3.519-1.053-7.675,2.523-16.526s10.878-14.386,15.346-15.721,9.659-1.337,12.487-.471,3.693.756,9.361,5.973a21.709,21.709,0,0,1,6.7,10.97,50.731,50.731,0,0,1-1.636,23.724c-3.548,11.437-2.11,19.778-1.33,30.543,0,0-3.477-4.219-3.913-13.824s-.1-21.62.184-24.506a2.312,2.312,0,0,0-2.276-2.856s-3.486-.158-5.2,7.27,3.313,47.781,5.125,53.111,5.905,24.754,20.348,40.435,25.475,5.245,27.123,4.638c13.581-11.535,19.668-30.808,21.616-35.236,7.339-22.27,7.927-34.942,8.985-34.667,1.4.362,2.2,26.273-8.169,53.822,0,0-12.279,35.007-30.478,43.275a40.826,40.826,0,0,1-8.088,2.568c-7.35,1.752-14.914-3.416-14.914-3.416a51.234,51.234,0,0,1-16.457-21.129c-7.079-15.463-13.741-37.151-13.741-37.151s-7.343-24.576-9-42.333c-1.035-11.1-1.434-15.122-1.651-17.228-.038-.374-.067-1.43-.289-2.832-.63-3.969-1.927-8.4-2.722-7.912C188.947,380.193,199.937,450.37,198.11,444.947Z" transform="translate(0 -19.049)"/><path class="cls-12" d="M234.716,461.268c4.166,10.065,7.792,13.167,9.248,14.3,1.613,1.258,6.711,5.743,13.084,4.754,5.968-.926,10.1-3.432,14.832-9.575,8.167-11.176,12.631-23.963,15-30.718s5.456-16.829,5.608-21.956c0,0-2.544,1.525-2.843,3.344s-8,27.217-15.874,38.309-12.87,12.968-12.87,12.968-5.407,3.162-12.288-.812-13.524-20.191-14.7-23.633-2.1-10.6-3.578-13.41-2.994-2.712-2.994-2.712h0A116.332,116.332,0,0,0,234.716,461.268Z" transform="translate(0 -19.049)"/><path class="cls-13" d="M86.041,358.419c2.531-5.133,7.776-11.916,19.371-33.577,0,0,3.842-8.805,15.593-23.329,2.226-2.75,4.668-6.183,13.447-9.934s17.857-2.524,21.966-.318,7.79,5.865,9.183,8.474,2.084,3.141,2.422,10.837a21.712,21.712,0,0,1-2.99,12.5,50.727,50.727,0,0,1-17.894,15.662c-10.583,5.6-15.447,12.53-22.487,20.711,0,0,.511-5.444,6.977-12.559s15.179-15.4,17.417-17.24a2.312,2.312,0,0,0,.4-3.63s-2.359-2.571-8.812,1.487-31.357,36.2-33.832,41.26-13.276,21.711-14.1,43.014,14.357,21.688,15.953,22.42c17.764,1.4,35.673-7.963,40.178-9.727,20.911-10.609,30.266-19.176,30.822-18.235.735,1.242-16.974,20.174-43.756,32.387,0,0-33.4,16.152-52.13,9.175a40.783,40.783,0,0,1-7.544-3.885c-6.445-3.943-8.161-12.941-8.161-12.941A51.236,51.236,0,0,1,71.3,404.387c5.89-15.955,16.467-36.027,16.467-36.027s12.13-22.6,23.483-36.354c7.095-8.6,9.651-11.73,10.982-13.375.237-.293.961-1.061,1.793-2.212,2.353-3.258,4.561-7.315,3.652-7.528C125.224,306.058,83.511,363.552,86.041,358.419Z" transform="translate(0 -19.049)"/><path class="cls-14" d="M100.475,395.81c-4.147,10.072-3.765,14.829-3.534,16.662.256,2.029.706,8.8,5.921,12.6,4.883,3.554,9.581,4.694,17.267,3.677,13.673-2.161,25.856-8.076,32.3-11.189s15.739-8.08,19.463-11.607c0,0-2.88-.714-4.374.365s-24.869,13.648-38.275,15.956-18.27.114-18.27.114-6.063-1.573-8.137-9.245,4.657-23.85,6.251-27.12,5.986-9,6.923-12.029-.209-4.034-.209-4.034h0A116.342,116.342,0,0,0,100.475,395.81Z" transform="translate(0 -19.049)"/><path class="cls-15" d="M67.642,218.035c5.415-1.854,13.917-2.962,37.416-10.136,0,0,8.934-3.531,27.509-5.536,3.517-.38,7.67-1.091,16.539,2.443s14.437,10.808,15.794,15.27,1.384,9.652.531,12.484-.738,3.7-5.928,9.39a21.708,21.708,0,0,1-10.937,6.752,50.73,50.73,0,0,1-23.731-1.521c-11.454-3.494-19.788-2.015-30.549-1.183,0,0,4.2-3.5,13.8-3.98s21.619-.205,24.507.066a2.311,2.311,0,0,0,2.844-2.29s.142-3.486-7.294-5.163-47.765,3.543-53.086,5.382-24.725,6.023-40.336,20.542-5.122,25.5-4.507,27.145c11.6,13.525,30.9,19.519,35.339,21.446,22.306,7.232,34.98,7.758,34.711,8.817-.355,1.4-26.262,2.326-53.861-7.908,0,0-35.066-12.111-43.422-30.27A40.793,40.793,0,0,1,.378,271.71c-1.787-7.341,3.344-14.93,3.344-14.93a51.233,51.233,0,0,1,21.049-16.559c15.43-7.154,37.085-13.92,37.085-13.92s24.54-7.462,42.289-9.2c11.093-1.089,15.115-1.507,17.22-1.734.374-.04,1.429-.074,2.831-.3,3.965-.65,8.392-1.967,7.9-2.76C132.351,208.559,62.228,219.888,67.642,218.035Z" transform="translate(0 -19.049)"/><path class="cls-16" d="M51.5,254.719c-10.044,4.215-13.129,7.855-14.258,9.317-1.25,1.619-5.711,6.739-4.691,13.107.955,5.963,3.481,10.085,9.646,14.786,11.216,8.113,24.024,12.515,30.79,14.856s16.856,5.375,21.983,5.5c0,0-1.538-2.537-3.358-2.826s-27.255-7.869-38.385-15.69S40.2,280.964,40.2,280.964s-3.188-5.392.753-12.292,20.125-13.621,23.562-14.813S75.1,251.7,77.9,250.216s2.7-3.007,2.7-3.007h0A116.348,116.348,0,0,0,51.5,254.719Z" transform="translate(0 -19.049)"/><path class="cls-17" d="M285.375,221.064s-3.013,7.336-14.31,8.608-69.668,0-69.668,0c-21.088,3.717-3.389,30.518-3.389,30.518a11.143,11.143,0,0,1,8.662-10.6s10.587.446,24.062.556c-.649,3.559-9.827,54.834-1.468,65.062,6.9,11.412,24.255,8.966,24.255,8.966s14.258-1.455,9.88-14.892c.011.088-.289.632-8.985,1.239a8.117,8.117,0,0,1-6.7-5.5c-1.13-3.533,5.163-55.082,5.163-55.083,14.533-.452,27.986-1.656,32.5-4.422C296.672,238.59,285.375,221.064,285.375,221.064Z" transform="translate(0 -19.049)"/><path class="cls-18" d="M263.4,309.286l0-.013Z" transform="translate(0 -19.049)"/></svg>